{
  "accessors": [
    {
      "bufferView": 2,
      "componentType": 5126,
      "count": 8966,
      "max": [
        0.039387911558151245,
        0.16306786239147186,
        0.00829290971159935
      ],
      "min": [
        -0.039727404713630676,
        6.784489960409701e-05,
        -0.004376109689474106
      ],
      "type": "VEC3"
    },
    {
      "bufferView": 2,
      "byteOffset": 107592,
      "componentType": 5126,
      "count": 8966,
      "max": [
        1.0,
        1.0,
        1.0
      ],
      "min": [
        -1.0,
        -1.0,
        -1.0
      ],
      "type": "VEC3"
    },
    {
      "bufferView": 1,
      "componentType": 5126,
      "count": 8966,
      "max": [
        1.000001072883606,
        1.0000007152557373
      ],
      "min": [
        -1.6726822877899394e-06,
        -5.960464477539063e-07
      ],
      "type": "VEC2"
    },
    {
      "bufferView": 1,
      "byteOffset": 71728,
      "componentType": 5126,
      "count": 8966,
      "max": [
        0.0,
        1.0
      ],
      "min": [
        0.0,
        1.0
      ],
      "type": "VEC2"
    },
    {
      "bufferView": 0,
      "componentType": 5125,
      "count": 37716,
      "type": "SCALAR"
    },
    {
      "bufferView": 2,
      "byteOffset": 215184,
      "componentType": 5126,
      "count": 4903,
      "max": [
        0.03738135099411011,
        0.16144917905330658,
        0.008628573268651962
      ],
      "min": [
        -0.03738129138946533,
        2.71498483925825e-05,
        -0.004857946652919054
      ],
      "type": "VEC3"
    },
    {
      "bufferView": 2,
      "byteOffset": 274020,
      "componentType": 5126,
      "count": 4903,
      "max": [
        1.0,
        1.0,
        1.0
      ],
      "min": [
        -1.0,
        -1.0,
        -1.0
      ],
      "type": "VEC3"
    },
    {
      "bufferView": 1,
      "byteOffset": 143456,
      "componentType": 5126,
      "count": 4903,
      "max": [
        0.9899638891220093,
        1.0000007152557373
      ],
      "min": [
        -1.6726822877899394e-06,
        0.021244525909423828
      ],
      "type": "VEC2"
    },
    {
      "bufferView": 1,
      "byteOffset": 182680,
      "componentType": 5126,
      "count": 4903,
      "max": [
        0.0,
        1.0
      ],
      "min": [
        0.0,
        1.0
      ],
      "type": "VEC2"
    },
    {
      "bufferView": 0,
      "byteOffset": 150864,
      "componentType": 5125,
      "count": 20760,
      "type": "SCALAR"
    },
    {
      "bufferView": 2,
      "byteOffset": 332856,
      "componentType": 5126,
      "count": 1308,
      "max": [
        0.039017438888549805,
        0.1591472327709198,
        0.006481532007455826
      ],
      "min": [
        -0.03901734948158264,
        -1.358994450129103e-05,
        -0.004395989701151848
      ],
      "type": "VEC3"
    },
    {
      "bufferView": 2,
      "byteOffset": 348552,
      "componentType": 5126,
      "count": 1308,
      "max": [
        1.0,
        1.0,
        1.0
      ],
      "min": [
        -1.0,
        -1.0,
        -0.9998989105224609
      ],
      "type": "VEC3"
    },
    {
      "bufferView": 1,
      "byteOffset": 221904,
      "componentType": 5126,
      "count": 1308,
      "max": [
        1.0000008344650269,
        1.0
      ],
      "min": [
        0.0,
        0.02051258087158203
      ],
      "type": "VEC2"
    },
    {
      "bufferView": 1,
      "byteOffset": 232368,
      "componentType": 5126,
      "count": 1308,
      "max": [
        0.0,
        1.0
      ],
      "min": [
        0.0,
        1.0
      ],
      "type": "VEC2"
    },
    {
      "bufferView": 0,
      "byteOffset": 233904,
      "componentType": 5125,
      "count": 4398,
      "type": "SCALAR"
    },
    {
      "bufferView": 2,
      "byteOffset": 364248,
      "componentType": 5126,
      "count": 462,
      "max": [
        0.03624260425567627,
        0.16031043231487274,
        0.008508045226335526
      ],
      "min": [
        -0.03624255582690239,
        0.002825290197506547,
        -0.004857946652919054
      ],
      "type": "VEC3"
    },
    {
      "bufferView": 2,
      "byteOffset": 369792,
      "componentType": 5126,
      "count": 462,
      "max": [
        0.020899569615721703,
        0.020899573341012,
        1.0
      ],
      "min": [
        -0.020899569615721703,
        -0.020899569615721703,
        -1.0
      ],
      "type": "VEC3"
    },
    {
      "bufferView": 1,
      "byteOffset": 242832,
      "componentType": 5126,
      "count": 462,
      "max": [
        0.9860542416572571,
        1.0
      ],
      "min": [
        0.0,
        0.05156087875366211
      ],
      "type": "VEC2"
    },
    {
      "bufferView": 1,
      "byteOffset": 246528,
      "componentType": 5126,
      "count": 462,
      "max": [
        0.0,
        1.0
      ],
      "min": [
        0.0,
        1.0
      ],
      "type": "VEC2"
    },
    {
      "bufferView": 0,
      "byteOffset": 251496,
      "componentType": 5125,
      "count": 1326,
      "type": "SCALAR"
    },
    {
      "bufferView": 2,
      "byteOffset": 375336,
      "componentType": 5126,
      "count": 489,
      "max": [
        0.03503485396504402,
        0.1144542545080185,
        0.0044040316715836525
      ],
      "min": [
        -0.038769714534282684,
        0.003312349086627364,
        -0.0020943726412951946
      ],
      "type": "VEC3"
    },
    {
      "bufferView": 2,
      "byteOffset": 381204,
      "componentType": 5126,
      "count": 489,
      "max": [
        0.9999581575393677,
        1.0,
        1.0
      ],
      "min": [
        -0.9999998807907104,
        -1.0,
        -0.9999885559082031
      ],
      "type": "VEC3"
    },
    {
      "bufferView": 1,
      "byteOffset": 250224,
      "componentType": 5126,
      "count": 489,
      "max": [
        1.0,
        1.0
      ],
      "min": [
        0.0,
        0.0
      ],
      "type": "VEC2"
    },
    {
      "bufferView": 1,
      "byteOffset": 254136,
      "componentType": 5126,
      "count": 489,
      "max": [
        0.0,
        1.0
      ],
      "min": [
        0.0,
        1.0
      ],
      "type": "VEC2"
    },
    {
      "bufferView": 0,
      "byteOffset": 256800,
      "componentType": 5125,
      "count": 1437,
      "type": "SCALAR"
    },
    {
      "bufferView": 2,
      "byteOffset": 387072,
      "componentType": 5126,
      "count": 77,
      "max": [
        0.008128328248858452,
        0.0717158243060112,
        0.004404022358357906
      ],
      "min": [
        -0.008535675704479218,
        0.05120140686631203,
        0.004404016304761171
      ],
      "type": "VEC3"
    },
    {
      "bufferView": 2,
      "byteOffset": 387996,
      "componentType": 5126,
      "count": 77,
      "max": [
        0.0,
        0.0,
        1.0
      ],
      "min": [
        0.0,
        0.0,
        1.0
      ],
      "type": "VEC3"
    },
    {
      "bufferView": 1,
      "byteOffset": 258048,
      "componentType": 5126,
      "count": 77,
      "max": [
        0.0,
        1.0
      ],
      "min": [
        0.0,
        1.0
      ],
      "type": "VEC2"
    },
    {
      "bufferView": 1,
      "byteOffset": 258664,
      "componentType": 5126,
      "count": 77,
      "max": [
        0.0,
        1.0
      ],
      "min": [
        0.0,
        1.0
      ],
      "type": "VEC2"
    },
    {
      "bufferView": 0,
      "byteOffset": 262548,
      "componentType": 5125,
      "count": 219,
      "type": "SCALAR"
    },
    {
      "bufferView": 2,
      "byteOffset": 388920,
      "componentType": 5126,
      "count": 704,
      "max": [
        8.52653756737709e-05,
        0.15585382282733917,
        0.00824892707169056
      ],
      "min": [
        -0.031448930501937866,
        0.12314440310001373,
        0.008136728778481483
      ],
      "type": "VEC3"
    },
    {
      "bufferView": 2,
      "byteOffset": 397368,
      "componentType": 5126,
      "count": 704,
      "max": [
        0.9999997615814209,
        0.9999997615814209,
        1.0
      ],
      "min": [
        -0.9999997615814209,
        -0.9999997615814209,
        0.0006000102730467916
      ],
      "type": "VEC3"
    },
    {
      "bufferView": 1,
      "byteOffset": 259280,
      "componentType": 5126,
      "count": 704,
      "max": [
        0.0,
        1.0
      ],
      "min": [
        0.0,
        1.0
      ],
      "type": "VEC2"
    },
    {
      "bufferView": 1,
      "byteOffset": 264912,
      "componentType": 5126,
      "count": 704,
      "max": [
        0.0,
        1.0
      ],
      "min": [
        0.0,
        1.0
      ],
      "type": "VEC2"
    },
    {
      "bufferView": 0,
      "byteOffset": 263424,
      "componentType": 5125,
      "count": 3072,
      "type": "SCALAR"
    },
    {
      "bufferView": 2,
      "byteOffset": 405816,
      "componentType": 5126,
      "count": 416,
      "max": [
        0.028738774359226227,
        0.15308213233947754,
        0.006801380775868893
      ],
      "min": [
        0.021829750388860703,
        0.14617310464382172,
        0.006524163298308849
      ],
      "type": "VEC3"
    },
    {
      "bufferView": 2,
      "byteOffset": 410808,
      "componentType": 5126,
      "count": 416,
      "max": [
        0.8105707168579102,
        0.8105707168579102,
        1.0
      ],
      "min": [
        -0.8106176853179932,
        -0.8106111884117126,
        0.5801018476486206
      ],
      "type": "VEC3"
    },
    {
      "bufferView": 1,
      "byteOffset": 270544,
      "componentType": 5126,
      "count": 416,
      "max": [
        0.0,
        1.0
      ],
      "min": [
        0.0,
        1.0
      ],
      "type": "VEC2"
    },
    {
      "bufferView": 1,
      "byteOffset": 273872,
      "componentType": 5126,
      "count": 416,
      "max": [
        0.0,
        1.0
      ],
      "min": [
        0.0,
        1.0
      ],
      "type": "VEC2"
    },
    {
      "bufferView": 0,
      "byteOffset": 275712,
      "componentType": 5125,
      "count": 2304,
      "type": "SCALAR"
    },
    {
      "bufferView": 2,
      "byteOffset": 415800,
      "componentType": 5126,
      "count": 64,
      "max": [
        0.02613510563969612,
        0.15047846734523773,
        0.00659096147865057
      ],
      "min": [
        0.02443341538310051,
        0.14877676963806152,
        0.006581541150808334
      ],
      "type": "VEC3"
    },
    {
      "bufferView": 2,
      "byteOffset": 416568,
      "componentType": 5126,
      "count": 64,
      "max": [
        0.3754083812236786,
        0.3754097521305084,
        0.9978524446487427
      ],
      "min": [
        -0.3754083812236786,
        -0.3754083812236786,
        0.9261127710342407
      ],
      "type": "VEC3"
    },
    {
      "bufferView": 1,
      "byteOffset": 277200,
      "componentType": 5126,
      "count": 64,
      "max": [
        0.0,
        1.0
      ],
      "min": [
        0.0,
        1.0
      ],
      "type": "VEC2"
    },
    {
      "bufferView": 1,
      "byteOffset": 277712,
      "componentType": 5126,
      "count": 64,
      "max": [
        0.0,
        1.0
      ],
      "min": [
        0.0,
        1.0
      ],
      "type": "VEC2"
    },
    {
      "bufferView": 0,
      "byteOffset": 284928,
      "componentType": 5125,
      "count": 282,
      "type": "SCALAR"
    },
    {
      "bufferView": 2,
      "byteOffset": 417336,
      "componentType": 5126,
      "count": 8,
      "max": [
        0.024433068931102753,
        0.00022070114209782332,
        0.0008553429506719112
      ],
      "min": [
        -0.02443307638168335,
        0.0002206861536251381,
        -0.0008574901148676872
      ],
      "type": "VEC3"
    },
    {
      "bufferView": 2,
      "byteOffset": 417432,
      "componentType": 5126,
      "count": 8,
      "max": [
        0.0,
        -1.0,
        0.0
      ],
      "min": [
        0.0,
        -1.0,
        0.0
      ],
      "type": "VEC3"
    },
    {
      "bufferView": 3,
      "componentType": 5126,
      "count": 8,
      "max": [
        1.966838453881792e-06,
        0.0,
        1.0,
        -1.0
      ],
      "min": [
        0.0,
        0.0,
        -1.0,
        -1.0
      ],
      "type": "VEC4"
    },
    {
      "bufferView": 1,
      "byteOffset": 278224,
      "componentType": 5126,
      "count": 8,
      "max": [
        0.0,
        1.0
      ],
      "min": [
        0.0,
        1.0
      ],
      "type": "VEC2"
    },
    {
      "bufferView": 1,
      "byteOffset": 278288,
      "componentType": 5126,
      "count": 8,
      "max": [
        0.2551877498626709,
        1.3293511867523193
      ],
      "min": [
        7.139146327972412e-05,
        -0.32935142517089844
      ],
      "type": "VEC2"
    },
    {
      "bufferView": 1,
      "byteOffset": 278352,
      "componentType": 5126,
      "count": 8,
      "max": [
        0.0,
        1.0
      ],
      "min": [
        0.0,
        1.0
      ],
      "type": "VEC2"
    },
    {
      "bufferView": 1,
      "byteOffset": 278416,
      "componentType": 5126,
      "count": 8,
      "max": [
        0.0,
        1.0
      ],
      "min": [
        0.0,
        1.0
      ],
      "type": "VEC2"
    },
    {
      "bufferView": 1,
      "byteOffset": 278480,
      "componentType": 5126,
      "count": 8,
      "max": [
        0.0,
        1.0
      ],
      "min": [
        0.0,
        1.0
      ],
      "type": "VEC2"
    },
    {
      "bufferView": 0,
      "byteOffset": 286056,
      "componentType": 5125,
      "count": 12,
      "type": "SCALAR"
    },
    {
      "bufferView": 2,
      "byteOffset": 417528,
      "componentType": 5126,
      "count": 104,
      "max": [
        0.0034120017662644386,
        0.004382118582725525,
        0.0005135393585078418
      ],
      "min": [
        -0.003412003628909588,
        0.0009168535470962524,
        -0.00022638119116891176
      ],
      "type": "VEC3"
    },
    {
      "bufferView": 2,
      "byteOffset": 418776,
      "componentType": 5126,
      "count": 104,
      "max": [
        0.0,
        0.0,
        1.0
      ],
      "min": [
        0.0,
        0.0,
        -1.0
      ],
      "type": "VEC3"
    },
    {
      "bufferView": 1,
      "byteOffset": 278544,
      "componentType": 5126,
      "count": 104,
      "max": [
        0.0,
        1.0
      ],
      "min": [
        0.0,
        1.0
      ],
      "type": "VEC2"
    },
    {
      "bufferView": 1,
      "byteOffset": 279376,
      "componentType": 5126,
      "count": 104,
      "max": [
        0.0,
        1.0
      ],
      "min": [
        0.0,
        1.0
      ],
      "type": "VEC2"
    },
    {
      "bufferView": 0,
      "byteOffset": 286104,
      "componentType": 5125,
      "count": 156,
      "type": "SCALAR"
    },
    {
      "bufferView": 2,
      "byteOffset": 420024,
      "componentType": 5126,
      "count": 760,
      "max": [
        0.008000809699296951,
        0.0005321651697158813,
        0.0008170818910002708
      ],
      "min": [
        -0.008005335927009583,
        0.0003264397382736206,
        -0.0008201892487704754
      ],
      "type": "VEC3"
    },
    {
      "bufferView": 2,
      "byteOffset": 429144,
      "componentType": 5126,
      "count": 760,
      "max": [
        0.9999005198478699,
        -0.013799615204334259,
        0.9972906112670898
      ],
      "min": [
        -0.9998442530632019,
        -1.0,
        -0.9967983365058899
      ],
      "type": "VEC3"
    },
    {
      "bufferView": 1,
      "byteOffset": 280208,
      "componentType": 5126,
      "count": 760,
      "max": [
        0.0,
        1.0
      ],
      "min": [
        0.0,
        1.0
      ],
      "type": "VEC2"
    },
    {
      "bufferView": 1,
      "byteOffset": 286288,
      "componentType": 5126,
      "count": 760,
      "max": [
        0.0,
        1.0
      ],
      "min": [
        0.0,
        1.0
      ],
      "type": "VEC2"
    },
    {
      "bufferView": 0,
      "byteOffset": 286728,
      "componentType": 5125,
      "count": 4452,
      "type": "SCALAR"
    },
    {
      "bufferView": 2,
      "byteOffset": 438264,
      "componentType": 5126,
      "count": 2664,
      "max": [
        -0.0028410181403160095,
        0.1510383039712906,
        0.00796637125313282
      ],
      "min": [
        -0.026633404195308685,
        0.12803013622760773,
        0.006810576654970646
      ],
      "type": "VEC3"
    },
    {
      "bufferView": 2,
      "byteOffset": 470232,
      "componentType": 5126,
      "count": 2664,
      "max": [
        0.9692955613136292,
        0.9692955613136292,
        1.0
      ],
      "min": [
        -0.9692955613136292,
        -0.9693193435668945,
        0.2457956075668335
      ],
      "type": "VEC3"
    },
    {
      "bufferView": 1,
      "byteOffset": 292368,
      "componentType": 5126,
      "count": 2664,
      "max": [
        1.0,
        0.5
      ],
      "min": [
        0.0,
        0.0
      ],
      "type": "VEC2"
    },
    {
      "bufferView": 1,
      "byteOffset": 313680,
      "componentType": 5126,
      "count": 2664,
      "max": [
        0.0,
        1.0
      ],
      "min": [
        0.0,
        1.0
      ],
      "type": "VEC2"
    },
    {
      "bufferView": 0,
      "byteOffset": 304536,
      "componentType": 5125,
      "count": 12960,
      "type": "SCALAR"
    },
    {
      "bufferView": 2,
      "byteOffset": 502200,
      "componentType": 5126,
      "count": 78,
      "max": [
        0.03650564327836037,
        0.16057342290878296,
        -0.004787571262568235
      ],
      "min": [
        -0.03650559112429619,
        0.002562284702435136,
        -0.004787597805261612
      ],
      "type": "VEC3"
    },
    {
      "bufferView": 2,
      "byteOffset": 503136,
      "componentType": 5126,
      "count": 78,
      "max": [
        0.0,
        9.999999747378752e-05,
        -1.0
      ],
      "min": [
        0.0,
        0.0,
        -1.0
      ],
      "type": "VEC3"
    },
    {
      "bufferView": 1,
      "byteOffset": 334992,
      "componentType": 5126,
      "count": 78,
      "max": [
        0.999900221824646,
        0.9999001622200012
      ],
      "min": [
        9.97781753540039e-05,
        0.0040975213050842285
      ],
      "type": "VEC2"
    },
    {
      "bufferView": 1,
      "byteOffset": 335616,
      "componentType": 5126,
      "count": 78,
      "max": [
        0.0,
        1.0
      ],
      "min": [
        0.0,
        1.0
      ],
      "type": "VEC2"
    },
    {
      "bufferView": 1,
      "byteOffset": 336240,
      "componentType": 5126,
      "count": 78,
      "max": [
        0.999900221824646,
        0.9999001622200012
      ],
      "min": [
        9.97781753540039e-05,
        0.0040975213050842285
      ],
      "type": "VEC2"
    },
    {
      "bufferView": 0,
      "byteOffset": 356376,
      "componentType": 5125,
      "count": 222,
      "type": "SCALAR"
    },
    {
      "bufferView": 2,
      "byteOffset": 504072,
      "componentType": 5126,
      "count": 173,
      "max": [
        -0.0072374045848846436,
        0.1558929681777954,
        -0.004839103203266859
      ],
      "min": [
        -0.009700029157102108,
        0.15343035757541656,
        -0.004839170258492231
      ],
      "type": "VEC3"
    },
    {
      "bufferView": 2,
      "byteOffset": 506148,
      "componentType": 5126,
      "count": 173,
      "max": [
        0.00019999999494757503,
        0.00019999999494757503,
        -1.0
      ],
      "min": [
        -0.00019999999494757503,
        -0.00019999999494757503,
        -1.0
      ],
      "type": "VEC3"
    },
    {
      "bufferView": 1,
      "byteOffset": 336864,
      "componentType": 5126,
      "count": 173,
      "max": [
        0.0,
        1.0
      ],
      "min": [
        0.0,
        1.0
      ],
      "type": "VEC2"
    },
    {
      "bufferView": 1,
      "byteOffset": 338248,
      "componentType": 5126,
      "count": 173,
      "max": [
        0.0,
        1.0
      ],
      "min": [
        0.0,
        1.0
      ],
      "type": "VEC2"
    },
    {
      "bufferView": 0,
      "byteOffset": 357264,
      "componentType": 5125,
      "count": 288,
      "type": "SCALAR"
    },
    {
      "bufferView": 2,
      "byteOffset": 508224,
      "componentType": 5126,
      "count": 195,
      "max": [
        0.011029926128685474,
        0.15741755068302155,
        -0.004839098546653986
      ],
      "min": [
        -0.011224591173231602,
        0.15190580487251282,
        -0.004845177289098501
      ],
      "type": "VEC3"
    },
    {
      "bufferView": 2,
      "byteOffset": 510564,
      "componentType": 5126,
      "count": 195,
      "max": [
        0.00019999999494757503,
        0.00019999999494757503,
        -1.0
      ],
      "min": [
        -0.00019999999494757503,
        -9.999999747378752e-05,
        -1.0
      ],
      "type": "VEC3"
    },
    {
      "bufferView": 1,
      "byteOffset": 339632,
      "componentType": 5126,
      "count": 195,
      "max": [
        0.0,
        1.0
      ],
      "min": [
        0.0,
        1.0
      ],
      "type": "VEC2"
    },
    {
      "bufferView": 1,
      "byteOffset": 341192,
      "componentType": 5126,
      "count": 195,
      "max": [
        0.0,
        1.0
      ],
      "min": [
        0.0,
        1.0
      ],
      "type": "VEC2"
    },
    {
      "bufferView": 0,
      "byteOffset": 358416,
      "componentType": 5125,
      "count": 396,
      "type": "SCALAR"
    }
  ],
  "asset": {
    "extras": {
      "author": "TechFreak (https://sketchfab.com/Tech_Freak-2511)",
      "license": "CC-BY-4.0 (http://creativecommons.org/licenses/by/4.0/)",
      "source": "https://sketchfab.com/3d-models/iphone-17-pro-max-silver-9dbfe0d846f341bf9fc501a854f5de1a",
      "title": "iphone 17 pro max silver"
    },
    "generator": "Sketchfab-17.15.0",
    "version": "2.0"
  },
  "bufferViews": [
    {
      "buffer": 0,
      "byteLength": 360000,
      "name": "floatBufferViews",
      "target": 34963
    },
    {
      "buffer": 0,
      "byteLength": 342752,
      "byteOffset": 360000,
      "byteStride": 8,
      "name": "floatBufferViews",
      "target": 34962
    },
    {
      "buffer": 0,
      "byteLength": 512904,
      "byteOffset": 702752,
      "byteStride": 12,
      "name": "floatBufferViews",
      "target": 34962
    },
    {
      "buffer": 0,
      "byteLength": 128,
      "byteOffset": 1215656,
      "byteStride": 16,
      "name": "floatBufferViews",
      "target": 34962
    }
  ],
  "buffers": [
    {
      "byteLength": 1215784,
      "uri": "scene.bin"
    }
  ],
  "extensionsUsed": [
    "KHR_materials_clearcoat",
    "KHR_materials_transmission",
    "KHR_materials_specular"
  ],
  "images": [
    {
      "uri": "textures/17ProMax_2222_baseColor.png"
    },
    {
      "uri": "textures/17ProMax_2222_metallicRoughness.png"
    },
    {
      "uri": "textures/17ProMax_2222_normal.jpeg"
    },
    {
      "uri": "textures/17ProMax_Screen_baseColor.jpeg"
    }
  ],
  "materials": [
    {
      "doubleSided": true,
      "name": "17ProMax_color",
      "pbrMetallicRoughness": {
        "baseColorFactor": [
          0.784905,
          0.784905,
          0.784905,
          1.0
        ],
        "roughnessFactor": 0.333
      }
    },
    {
      "doubleSided": true,
      "name": "17ProMax_Black2",
      "pbrMetallicRoughness": {
        "baseColorFactor": [
          0.0,
          0.0,
          0.0,
          1.0
        ],
        "metallicFactor": 0.626984,
        "roughnessFactor": 0.5
      }
    },
    {
      "doubleSided": true,
      "name": "17ProMax_color3",
      "pbrMetallicRoughness": {
        "baseColorFactor": [
          0.318449,
          0.318449,
          0.318449,
          1.0
        ],
        "roughnessFactor": 0.4
      }
    },
    {
      "alphaMode": "BLEND",
      "doubleSided": true,
      "extensions": {
        "KHR_materials_clearcoat": {
          "clearcoatFactor": 0.25,
          "clearcoatRoughnessFactor": 0.0
        },
        "KHR_materials_specular": {
          "specularColorFactor": [
            1.0,
            1.0,
            1.0
          ],
          "specularFactor": 1.0
        },
        "KHR_materials_transmission": {
          "transmissionFactor": 1.0
        }
      },
      "name": "17ProMax_glass",
      "pbrMetallicRoughness": {
        "baseColorFactor": [
          0.0,
          0.0,
          0.0,
          0.25
        ],
        "metallicFactor": 0.0,
        "roughnessFactor": 0.0
      }
    },
    {
      "doubleSided": true,
      "name": "17ProMax_color2",
      "pbrMetallicRoughness": {
        "roughnessFactor": 0.4
      }
    },
    {
      "doubleSided": true,
      "name": "17ProMax_Logo",
      "pbrMetallicRoughness": {
        "baseColorFactor": [
          0.688594,
          0.688594,
          0.688594,
          1.0
        ],
        "roughnessFactor": 0.4
      }
    },
    {
      "doubleSided": true,
      "name": "17ProMax_black1",
      "pbrMetallicRoughness": {
        "baseColorFactor": [
          0.00838879,
          0.00838879,
          0.00838879,
          1.0
        ],
        "metallicFactor": 0.472727,
        "roughnessFactor": 0.204545
      }
    },
    {
      "doubleSided": true,
      "name": "17ProMax_21",
      "pbrMetallicRoughness": {
        "metallicFactor": 0.0,
        "roughnessFactor": 0.5
      }
    },
    {
      "doubleSided": true,
      "name": "17ProMax_22",
      "pbrMetallicRoughness": {
        "metallicFactor": 0.0,
        "roughnessFactor": 0.5
      }
    },
    {
      "alphaMode": "BLEND",
      "doubleSided": true,
      "name": "17ProMax_2222",
      "normalTexture": {
        "index": 2
      },
      "pbrMetallicRoughness": {
        "baseColorTexture": {
          "index": 0
        },
        "metallicFactor": 0.0,
        "metallicRoughnessTexture": {
          "index": 1
        }
      }
    },
    {
      "doubleSided": true,
      "name": "17ProMax_G",
      "pbrMetallicRoughness": {
        "baseColorFactor": [
          0.558451,
          0.326408,
          0.00114573,
          1.0
        ],
        "roughnessFactor": 0.517215
      }
    },
    {
      "doubleSided": true,
      "name": "17ProMax_1111",
      "pbrMetallicRoughness": {
        "baseColorFactor": [
          0.0397373,
          0.0397373,
          0.0397373,
          1.0
        ],
        "metallicFactor": 0.8,
        "roughnessFactor": 0.6
      }
    },
    {
      "doubleSided": true,
      "name": "17ProMax_Lens",
      "pbrMetallicRoughness": {
        "baseColorFactor": [
          0.0,
          0.00597784,
          1.0,
          1.0
        ],
        "roughnessFactor": 0.0
      }
    },
    {
      "doubleSided": true,
      "emissiveFactor": [
        0.1,
        0.1,
        0.1
      ],
      "emissiveTexture": {
        "index": 3
      },
      "name": "17ProMax_Screen",
      "pbrMetallicRoughness": {
        "baseColorTexture": {
          "index": 3
        },
        "metallicFactor": 0.0,
        "roughnessFactor": 0.0
      }
    },
    {
      "doubleSided": true,
      "name": "17ProMax_Lens2",
      "pbrMetallicRoughness": {
        "baseColorFactor": [
          0.00577569,
          0.00700558,
          0.0795777,
          1.0
        ],
        "metallicFactor": 0.0,
        "roughnessFactor": 0.0
      }
    },
    {
      "doubleSided": true,
      "name": "17ProMax_2112",
      "pbrMetallicRoughness": {
        "baseColorFactor": [
          0.00462408,
          0.00462408,
          0.00462408,
          1.0
        ],
        "metallicFactor": 0.0,
        "roughnessFactor": 0.5
      }
    }
  ],
  "meshes": [
    {
      "name": "Object_0",
      "primitives": [
        {
          "attributes": {
            "NORMAL": 1,
            "POSITION": 0,
            "TEXCOORD_0": 2,
            "TEXCOORD_1": 3
          },
          "indices": 4,
          "material": 0,
          "mode": 4
        }
      ]
    },
    {
      "name": "Object_1",
      "primitives": [
        {
          "attributes": {
            "NORMAL": 6,
            "POSITION": 5,
            "TEXCOORD_0": 7,
            "TEXCOORD_1": 8
          },
          "indices": 9,
          "material": 1,
          "mode": 4
        }
      ]
    },
    {
      "name": "Object_2",
      "primitives": [
        {
          "attributes": {
            "NORMAL": 11,
            "POSITION": 10,
            "TEXCOORD_0": 12,
            "TEXCOORD_1": 13
          },
          "indices": 14,
          "material": 2,
          "mode": 4
        }
      ]
    },
    {
      "name": "Object_3",
      "primitives": [
        {
          "attributes": {
            "NORMAL": 16,
            "POSITION": 15,
            "TEXCOORD_0": 17,
            "TEXCOORD_1": 18
          },
          "indices": 19,
          "material": 3,
          "mode": 4
        }
      ]
    },
    {
      "name": "Object_4",
      "primitives": [
        {
          "attributes": {
            "NORMAL": 21,
            "POSITION": 20,
            "TEXCOORD_0": 22,
            "TEXCOORD_1": 23
          },
          "indices": 24,
          "material": 4,
          "mode": 4
        }
      ]
    },
    {
      "name": "Object_5",
      "primitives": [
        {
          "attributes": {
            "NORMAL": 26,
            "POSITION": 25,
            "TEXCOORD_0": 27,
            "TEXCOORD_1": 28
          },
          "indices": 29,
          "material": 5,
          "mode": 4
        }
      ]
    },
    {
      "name": "Object_6",
      "primitives": [
        {
          "attributes": {
            "NORMAL": 31,
            "POSITION": 30,
            "TEXCOORD_0": 32,
            "TEXCOORD_1": 33
          },
          "indices": 34,
          "material": 6,
          "mode": 4
        }
      ]
    },
    {
      "name": "Object_7",
      "primitives": [
        {
          "attributes": {
            "NORMAL": 36,
            "POSITION": 35,
            "TEXCOORD_0": 37,
            "TEXCOORD_1": 38
          },
          "indices": 39,
          "material": 7,
          "mode": 4
        }
      ]
    },
    {
      "name": "Object_8",
      "primitives": [
        {
          "attributes": {
            "NORMAL": 41,
            "POSITION": 40,
            "TEXCOORD_0": 42,
            "TEXCOORD_1": 43
          },
          "indices": 44,
          "material": 8,
          "mode": 4
        }
      ]
    },
    {
      "name": "Object_9",
      "primitives": [
        {
          "attributes": {
            "NORMAL": 46,
            "POSITION": 45,
            "TANGENT": 47,
            "TEXCOORD_0": 48,
            "TEXCOORD_1": 49,
            "TEXCOORD_2": 50,
            "TEXCOORD_3": 51,
            "TEXCOORD_4": 52
          },
          "indices": 53,
          "material": 9,
          "mode": 4
        }
      ]
    },
    {
      "name": "Object_10",
      "primitives": [
        {
          "attributes": {
            "NORMAL": 55,
            "POSITION": 54,
            "TEXCOORD_0": 56,
            "TEXCOORD_1": 57
          },
          "indices": 58,
          "material": 10,
          "mode": 4
        }
      ]
    },
    {
      "name": "Object_11",
      "primitives": [
        {
          "attributes": {
            "NORMAL": 60,
            "POSITION": 59,
            "TEXCOORD_0": 61,
            "TEXCOORD_1": 62
          },
          "indices": 63,
          "material": 11,
          "mode": 4
        }
      ]
    },
    {
      "name": "Object_12",
      "primitives": [
        {
          "attributes": {
            "NORMAL": 65,
            "POSITION": 64,
            "TEXCOORD_0": 66,
            "TEXCOORD_1": 67
          },
          "indices": 68,
          "material": 12,
          "mode": 4
        }
      ]
    },
    {
      "name": "Object_13",
      "primitives": [
        {
          "attributes": {
            "NORMAL": 70,
            "POSITION": 69,
            "TEXCOORD_0": 71,
            "TEXCOORD_1": 72,
            "TEXCOORD_2": 73
          },
          "indices": 74,
          "material": 13,
          "mode": 4
        }
      ]
    },
    {
      "name": "Object_14",
      "primitives": [
        {
          "attributes": {
            "NORMAL": 76,
            "POSITION": 75,
            "TEXCOORD_0": 77,
            "TEXCOORD_1": 78
          },
          "indices": 79,
          "material": 14,
          "mode": 4
        }
      ]
    },
    {
      "name": "Object_15",
      "primitives": [
        {
          "attributes": {
            "NORMAL": 81,
            "POSITION": 80,
            "TEXCOORD_0": 82,
            "TEXCOORD_1": 83
          },
          "indices": 84,
          "material": 15,
          "mode": 4
        }
      ]
    }
  ],
  "nodes": [
    {
      "children": [
        1
      ],
      "matrix": [
        1.0,
        0.0,
        0.0,
        0.0,
        0.0,
        2.220446049250313e-16,
        -1.0,
        0.0,
        0.0,
        1.0,
        2.220446049250313e-16,
        0.0,
        0.0,
        0.0,
        0.0,
        1.0
      ],
      "name": "Sketchfab_model"
    },
    {
      "children": [
        2
      ],
      "name": "root"
    },
    {
      "children": [
        3
      ],
      "matrix": [
        1.0,
        0.0,
        0.0,
        0.0,
        0.0,
        2.220446049250313e-16,
        1.0,
        0.0,
        0.0,
        -1.0,
        2.220446049250313e-16,
        0.0,
        0.0,
        0.0,
        0.0,
        1.0
      ],
      "name": "GLTF_SceneRootNode"
    },
    {
      "children": [
        4,
        5,
        6,
        7,
        8,
        9,
        10,
        11,
        12,
        13,
        14,
        15,
        16,
        17,
        18,
        19
      ],
      "name": "iPhone 17 ProMax_0"
    },
    {
      "mesh": 0,
      "name": "Object_4"
    },
    {
      "mesh": 1,
      "name": "Object_5"
    },
    {
      "mesh": 2,
      "name": "Object_6"
    },
    {
      "mesh": 3,
      "name": "Object_7"
    },
    {
      "mesh": 4,
      "name": "Object_8"
    },
    {
      "mesh": 5,
      "name": "Object_9"
    },
    {
      "mesh": 6,
      "name": "Object_10"
    },
    {
      "mesh": 7,
      "name": "Object_11"
    },
    {
      "mesh": 8,
      "name": "Object_12"
    },
    {
      "mesh": 9,
      "name": "Object_13"
    },
    {
      "mesh": 10,
      "name": "Object_14"
    },
    {
      "mesh": 11,
      "name": "Object_15"
    },
    {
      "mesh": 12,
      "name": "Object_16"
    },
    {
      "mesh": 13,
      "name": "Object_17"
    },
    {
      "mesh": 14,
      "name": "Object_18"
    },
    {
      "mesh": 15,
      "name": "Object_19"
    }
  ],
  "samplers": [
    {
      "magFilter": 9729,
      "minFilter": 9987,
      "wrapS": 10497,
      "wrapT": 10497
    }
  ],
  "scene": 0,
  "scenes": [
    {
      "name": "Sketchfab_Scene",
      "nodes": [
        0
      ]
    }
  ],
  "textures": [
    {
      "sampler": 0,
      "source": 0
    },
    {
      "sampler": 0,
      "source": 1
    },
    {
      "sampler": 0,
      "source": 2
    },
    {
      "sampler": 0,
      "source": 3
    }
  ]
}
